{
	"asset": {
		"generator": "Tilt Brush 17.0.ec66acc",
		"version": "1.1",
		"copyright": "Unknown."
	},
	"buffers": {
		"sketch": {
			"byteLength": 3418200,
			"type": "arraybuffer",
			"uri": "sketch.bin"
		}
	},
	"accessors": {
		"accessor_position_DiamondHull_c8313697-2563-47fc-832e-290f4c04b901_0_0": {
			"bufferView": "vec3BufferView",
			"byteOffset": 0,
			"byteStride": 12,
			"componentType": 5126,
			"count": 65298,
			"max": [ 4.100937, 4.727119, 1.16524 ],
			"min": [ -4.100938, -0.8196129, -3.072782 ],
			"type": "VEC3"
		 },
		"accessor_normal_DiamondHull_c8313697-2563-47fc-832e-290f4c04b901_0_0": {
			"bufferView": "vec3BufferView",
			"byteOffset": 783576,
			"byteStride": 12,
			"componentType": 5126,
			"count": 65298,
			"max": [ 0.999942, 0.9997411, 0.9994333 ],
			"min": [ -0.999942, -0.9999709, -0.9997664 ],
			"type": "VEC3"
		 },
		"accessor_color_DiamondHull_c8313697-2563-47fc-832e-290f4c04b901_0_0": {
			"bufferView": "vec4BufferView",
			"byteOffset": 0,
			"byteStride": 16,
			"componentType": 5126,
			"count": 65298,
			"max": [ 1, 0.9490196, 0.9882353, 1 ],
			"min": [ 0.1960784, 0.1215686, 0.1215686, 1 ],
			"type": "VEC4"
		 },
		"accessor_uv0_DiamondHull_c8313697-2563-47fc-832e-290f4c04b901_0_0": {
			"bufferView": "vec2BufferView",
			"byteOffset": 0,
			"byteStride": 8,
			"componentType": 5126,
			"count": 65298,
			"max": [ 0, 1 ],
			"min": [ 0, 1 ],
			"type": "VEC2"
		 },
		"accessor_indices_0_DiamondHull_c8313697-2563-47fc-832e-290f4c04b901_0_0": {
			"bufferView": "ushortBufferView",
			"byteOffset": 0,
			"byteStride": 0,
			"componentType": 5123,
			"count": 65298,
			"max": [ 65297 ],
			"min": [ 0 ],
			"type": "SCALAR"
		 },
		"accessor_position_DiamondHull_c8313697-2563-47fc-832e-290f4c04b901_0_1": {
			"bufferView": "vec3BufferView",
			"byteOffset": 1567152,
			"byteStride": 12,
			"componentType": 5126,
			"count": 3066,
			"max": [ 0.4165047, 1.116534, -0.3350599 ],
			"min": [ -0.4165049, 0.1295495, -1.942108 ],
			"type": "VEC3"
		 },
		"accessor_normal_DiamondHull_c8313697-2563-47fc-832e-290f4c04b901_0_1": {
			"bufferView": "vec3BufferView",
			"byteOffset": 1603944,
			"byteStride": 12,
			"componentType": 5126,
			"count": 3066,
			"max": [ 0.9994233, 0.9952971, 0.9938803 ],
			"min": [ -0.9987805, -0.9991305, -0.997698 ],
			"type": "VEC3"
		 },
		"accessor_color_DiamondHull_c8313697-2563-47fc-832e-290f4c04b901_0_1": {
			"bufferView": "vec4BufferView",
			"byteOffset": 1044768,
			"byteStride": 16,
			"componentType": 5126,
			"count": 3066,
			"max": [ 0.9803922, 0.9490196, 0.8666667, 1 ],
			"min": [ 0.2509804, 0.1372549, 0.1686275, 1 ],
			"type": "VEC4"
		 },
		"accessor_uv0_DiamondHull_c8313697-2563-47fc-832e-290f4c04b901_0_1": {
			"bufferView": "vec2BufferView",
			"byteOffset": 522384,
			"byteStride": 8,
			"componentType": 5126,
			"count": 3066,
			"max": [ 0, 1 ],
			"min": [ 0, 1 ],
			"type": "VEC2"
		 },
		"accessor_indices_0_DiamondHull_c8313697-2563-47fc-832e-290f4c04b901_0_1": {
			"bufferView": "ushortBufferView",
			"byteOffset": 130596,
			"byteStride": 0,
			"componentType": 5123,
			"count": 3066,
			"max": [ 3065 ],
			"min": [ 0 ],
			"type": "SCALAR"
		 }
	},
	"bufferViews": {
		"ushortBufferView": {
			"buffer": "sketch",
			"byteLength": 136728,
			"byteOffset": 0,
			"target": 34963
		},
		"vec2BufferView": {
			"buffer": "sketch",
			"byteLength": 546912,
			"byteOffset": 136728,
			"target": 34962
		},
		"vec3BufferView": {
			"buffer": "sketch",
			"byteLength": 1640736,
			"byteOffset": 683640,
			"target": 34962
		},
		"vec4BufferView": {
			"buffer": "sketch",
			"byteLength": 1093824,
			"byteOffset": 2324376,
			"target": 34962
		}
	},
	"meshes": {
		"mesh_DiamondHull_c8313697-2563-47fc-832e-290f4c04b901_0_0": {
			"name": "mesh_DiamondHull_c8313697-2563-47fc-832e-290f4c04b901_0_0",
			"primitives": [
				{
					"attributes": {
						"POSITION": "accessor_position_DiamondHull_c8313697-2563-47fc-832e-290f4c04b901_0_0",
						"NORMAL": "accessor_normal_DiamondHull_c8313697-2563-47fc-832e-290f4c04b901_0_0",
						"COLOR": "accessor_color_DiamondHull_c8313697-2563-47fc-832e-290f4c04b901_0_0",
						"TEXCOORD_0": "accessor_uv0_DiamondHull_c8313697-2563-47fc-832e-290f4c04b901_0_0"
					},
					"indices": "accessor_indices_0_DiamondHull_c8313697-2563-47fc-832e-290f4c04b901_0_0",
					"material": "material_c8313697-2563-47fc-832e-290f4c04b901",
					"mode": 4
				}
			]
		},
		"mesh_DiamondHull_c8313697-2563-47fc-832e-290f4c04b901_0_1": {
			"name": "mesh_DiamondHull_c8313697-2563-47fc-832e-290f4c04b901_0_1",
			"primitives": [
				{
					"attributes": {
						"POSITION": "accessor_position_DiamondHull_c8313697-2563-47fc-832e-290f4c04b901_0_1",
						"NORMAL": "accessor_normal_DiamondHull_c8313697-2563-47fc-832e-290f4c04b901_0_1",
						"COLOR": "accessor_color_DiamondHull_c8313697-2563-47fc-832e-290f4c04b901_0_1",
						"TEXCOORD_0": "accessor_uv0_DiamondHull_c8313697-2563-47fc-832e-290f4c04b901_0_1"
					},
					"indices": "accessor_indices_0_DiamondHull_c8313697-2563-47fc-832e-290f4c04b901_0_1",
					"material": "material_c8313697-2563-47fc-832e-290f4c04b901",
					"mode": 4
				}
			]
		}
	},
	"shaders": {
		"vertex_c8313697-2563-47fc-832e-290f4c04b901": {
			"type": 35633,
			"uri": "https://www.tiltbrush.com/shaders/brushes/DiamondHull-c8313697-2563-47fc-832e-290f4c04b901/DiamondHull-c8313697-2563-47fc-832e-290f4c04b901-v10.0-vertex.glsl"
		},
		"fragment_c8313697-2563-47fc-832e-290f4c04b901": {
			"type": 35632,
			"uri": "https://www.tiltbrush.com/shaders/brushes/DiamondHull-c8313697-2563-47fc-832e-290f4c04b901/DiamondHull-c8313697-2563-47fc-832e-290f4c04b901-v10.0-fragment.glsl"
		}
	},
	"programs": {
		"program_c8313697-2563-47fc-832e-290f4c04b901": {
			"attributes": [
				"a_position",
				"a_normal",
				"a_color",
				"a_texcoord0"				
			],
			"vertexShader": "vertex_c8313697-2563-47fc-832e-290f4c04b901",
			"fragmentShader": "fragment_c8313697-2563-47fc-832e-290f4c04b901"
		}
	},
	"techniques": {
		"technique_c8313697-2563-47fc-832e-290f4c04b901": {
			"program": "program_c8313697-2563-47fc-832e-290f4c04b901",
			"parameters": {
				"position": {
					"type": 35665,
					"semantic": "POSITION"
				},
				"normal": {
					"type": 35665,
					"semantic": "NORMAL"
				},
				"color": {
					"type": 35666,
					"semantic": "COLOR"
				},
				"texcoord0": {
					"type": 35664,
					"semantic": "TEXCOORD_0"
				},
				"modelViewMatrix": {
					"type": 35676,
					"semantic": "MODELVIEW"
				},
				"projectionMatrix": {
					"type": 35676,
					"semantic": "PROJECTION"
				},
				"normalMatrix": {
					"type": 35675,
					"semantic": "MODELVIEWINVERSETRANSPOSE"
				},
				"SceneLight_0_matrix": {
					"type": 35676,
					"semantic": "MODELVIEW",
					"node": "node_SceneLight_0_-3004"
				},
				"SceneLight_0_color": {
					"type": 35666,
					"node": "node_SceneLight_0_-3004"
				},
				"SceneLight_1_matrix": {
					"type": 35676,
					"semantic": "MODELVIEW",
					"node": "node_SceneLight_1_-3010"
				},
				"SceneLight_1_color": {
					"type": 35666,
					"node": "node_SceneLight_1_-3010"
				},
				"ambient_light_color": {
					"type": 35666
				},
				"MainTex_TexelSize": {
					"type": 35666
				},
				"MainTex": {
					"type": 35678
				}				
			},
			"attributes": {
				"a_position": "position",
				"a_normal": "normal",
				"a_color": "color",
				"a_texcoord0": "texcoord0"				
			},
			"uniforms": {
				"u_modelViewMatrix": "modelViewMatrix",
				"u_projectionMatrix": "projectionMatrix",
				"u_normalMatrix": "normalMatrix",
				"u_SceneLight_0_matrix": "SceneLight_0_matrix",
				"u_SceneLight_0_color": "SceneLight_0_color",
				"u_SceneLight_1_matrix": "SceneLight_1_matrix",
				"u_SceneLight_1_color": "SceneLight_1_color",
				"u_ambient_light_color": "ambient_light_color",
				"u_MainTex_TexelSize": "MainTex_TexelSize",
				"u_MainTex": "MainTex"				
			},
			"states": {
				"enable": [
					2929,
					3042
				],
				"functions": {
					"blendFuncSeparate": [1, 1, 1, 1],
					"depthMask": [false]
				}
			}
		}
	},
	"samplers": {
		"sampler_LINEAR_LINEAR_REPEAT": {
			"magFilter": 9729,
			"minFilter": 9987,
			"wrapS": 10497,
			"wrapT": 10497
		}
	},
	"textures": {
		"texture_c8313697-2563-47fc-832e-290f4c04b901_MainTex": {
			"format": 6408,
			"internalFormat": 6408,
			"sampler": "sampler_LINEAR_LINEAR_REPEAT",
			"source": "image_c8313697-2563-47fc-832e-290f4c04b901_MainTex",
			"target": 3553,
			"type": 5121
		}
	},
	"images": {
		"image_c8313697-2563-47fc-832e-290f4c04b901_MainTex": {
			"uri": "https://www.tiltbrush.com/shaders/brushes/DiamondHull-c8313697-2563-47fc-832e-290f4c04b901/DiamondHull-c8313697-2563-47fc-832e-290f4c04b901-v10.0-MainTex.png"
		}
	},
	"materials": {
		"material_c8313697-2563-47fc-832e-290f4c04b901": {
			"technique": "technique_c8313697-2563-47fc-832e-290f4c04b901",
			"values": {
				"SceneLight_0_color": [1.115294, 0.9176471, 0.7764706, 1],
				"SceneLight_1_color": [0.3568628, 0.3509804, 0.2882353, 1],
				"ambient_light_color": [0.4117647, 0.3529412, 0.5960785, 1],
				"MainTex_TexelSize": [0.0078125, 0.0078125, 128, 128],
				"MainTex": "texture_c8313697-2563-47fc-832e-290f4c04b901_MainTex"				
			},
			"name": "material_c8313697-2563-47fc-832e-290f4c04b901"
		}
	},
	"nodes": {
		"node_DiamondHull_c8313697-2563-47fc-832e-290f4c04b901_0_0": {
			"name": "node_DiamondHull_c8313697-2563-47fc-832e-290f4c04b901_0_0",
			"meshes": [
				"mesh_DiamondHull_c8313697-2563-47fc-832e-290f4c04b901_0_0"
			],
			"matrix": [1, 0, 0, 0, 0, 1, 0, 0, 0, 0, 1, 0, 0, 0, 0, 1]
		},
		"node_SceneLight_0_-3004": {
			"name": "node_SceneLight_0_-3004",
			"light": "SceneLight_0",
			"matrix": [0.8926361, 0.2817795, 0.3518538, 0, 0.134934, 0.5777338, -0.8049948, 0, -0.4301088, 0.7660444, 0.4776843, 0, -0.5123537, 1.276964, 0.04193231, 1]
		},
		"node_SceneLight_1_-3010": {
			"name": "node_SceneLight_1_-3010",
			"light": "SceneLight_1",
			"matrix": [0.8246188, -0.4924039, 0.2784641, 0, -0.07825871, -0.5868242, -0.8059238, 0, 0.5602494, 0.6427876, -0.5224411, 0, -0.5123537, 1.262453, -0.04036141, 1]
		},
		"node_DiamondHull_c8313697-2563-47fc-832e-290f4c04b901_0_1": {
			"name": "node_DiamondHull_c8313697-2563-47fc-832e-290f4c04b901_0_1",
			"meshes": [
				"mesh_DiamondHull_c8313697-2563-47fc-832e-290f4c04b901_0_1"
			],
			"matrix": [1, 0, 0, 0, 0, 1, 0, 0, 0, 0, 1, 0, 0, 0, 0, 1]
		}
	},
	"scene": "defaultScene",
	"scenes": {
		"defaultScene": {
			"nodes": [
				"node_DiamondHull_c8313697-2563-47fc-832e-290f4c04b901_0_0",
				"node_SceneLight_0_-3004",
				"node_SceneLight_1_-3010",
				"node_DiamondHull_c8313697-2563-47fc-832e-290f4c04b901_0_1"
			],
			"extras": {
				"TB_EnvironmentGuid": "e2e72b76-d443-4721-97e6-f3d49fe98dda",
				"TB_Environment": "Dress Form",
				"TB_UseGradient": "true",
				"TB_SkyColorA": "0.3411765, 0.345098, 0.4509804",
				"TB_SkyColorB": "0.09411765, 0.1058824, 0.1764706",
				"TB_SkyGradientDirection": "0, 1, 0",
				"TB_FogColor": "0.172549, 0.1803922, 0.2431373",
				"TB_FogDensity": "0.007",
				"TB_SkyColorHorizon": "0.3411765, 0.345098, 0.4509804",
				"TB_SkyColorZenith": "0.09411765, 0.1058824, 0.1764706"
			}
		}
	}
}